<mxfile host="Electron" modified="2024-08-12T04:52:11.961Z" agent="Mozilla/5.0 (Windows NT 10.0; Win64; x64) AppleWebKit/537.36 (KHTML, like Gecko) draw.io/24.1.0 Chrome/120.0.6099.109 Electron/28.1.0 Safari/537.36" etag="1XbN8ez4NbMj_Tz58ACV" version="24.1.0" type="device">
  <diagram name="Page-1" id="cV13aV2Op6u_tOA93Aiq">
    <mxGraphModel dx="2074" dy="96" grid="1" gridSize="10" guides="1" tooltips="1" connect="1" arrows="1" fold="1" page="1" pageScale="1" pageWidth="850" pageHeight="1100" math="0" shadow="0">
      <root>
        <mxCell id="0" />
        <mxCell id="1" parent="0" />
        <mxCell id="5WK8_x_44DjKEQDblCgN-1" value="" style="rounded=0;whiteSpace=wrap;html=1;fillColor=#4bc1fb;fontColor=#ffffff;strokeColor=#006EAF;" vertex="1" parent="1">
          <mxGeometry x="140" y="1170" width="420" height="310" as="geometry" />
        </mxCell>
        <mxCell id="5WK8_x_44DjKEQDblCgN-2" value="&lt;font style=&quot;font-size: 14px;&quot; color=&quot;#000000&quot;&gt;Screen / Graphics Device&lt;/font&gt;" style="text;html=1;align=center;verticalAlign=middle;whiteSpace=wrap;rounded=0;fillColor=#1ba1e2;fontColor=#ffffff;fontStyle=1;fontSize=14;strokeColor=#006EAF;" vertex="1" parent="1">
          <mxGeometry x="140" y="1130" width="190" height="40" as="geometry" />
        </mxCell>
        <mxCell id="5WK8_x_44DjKEQDblCgN-3" value="" style="rounded=0;whiteSpace=wrap;html=1;fillColor=#0050ef;fontColor=#ffffff;strokeColor=#001DBC;opacity=50;" vertex="1" parent="1">
          <mxGeometry x="140" y="1180" width="420" height="300" as="geometry" />
        </mxCell>
        <mxCell id="5WK8_x_44DjKEQDblCgN-4" value="Viewport" style="text;html=1;align=center;verticalAlign=middle;whiteSpace=wrap;rounded=0;fillColor=#0050ef;fontColor=#ffffff;fontStyle=1;fontSize=14;strokeColor=#001DBC;" vertex="1" parent="1">
          <mxGeometry x="480" y="1180" width="80" height="30" as="geometry" />
        </mxCell>
        <mxCell id="5WK8_x_44DjKEQDblCgN-6" value="&lt;font style=&quot;font-size: 14px;&quot;&gt;Camera&lt;/font&gt;" style="text;html=1;align=center;verticalAlign=middle;whiteSpace=wrap;rounded=0;fillColor=#6a00ff;fontColor=#ffffff;fontStyle=1;fontSize=14;strokeColor=#3700CC;" vertex="1" parent="1">
          <mxGeometry x="290" y="1300" width="80" height="30" as="geometry" />
        </mxCell>
        <mxCell id="5WK8_x_44DjKEQDblCgN-11" value="" style="ellipse;shape=cloud;whiteSpace=wrap;html=1;opacity=50;" vertex="1" parent="1">
          <mxGeometry x="420" y="1230" width="110" height="80" as="geometry" />
        </mxCell>
        <mxCell id="5WK8_x_44DjKEQDblCgN-14" value="" style="rounded=0;whiteSpace=wrap;html=1;" vertex="1" parent="1">
          <mxGeometry x="140" y="1440" width="420" height="30" as="geometry" />
        </mxCell>
        <mxCell id="5WK8_x_44DjKEQDblCgN-5" value="" style="rounded=0;whiteSpace=wrap;html=1;fillColor=#76608a;strokeColor=#432D57;fontColor=#ffffff;opacity=50;" vertex="1" parent="1">
          <mxGeometry x="140" y="1300" width="230" height="170" as="geometry" />
        </mxCell>
        <mxCell id="5WK8_x_44DjKEQDblCgN-10" value="" style="ellipse;shape=cloud;whiteSpace=wrap;html=1;opacity=50;" vertex="1" parent="1">
          <mxGeometry x="170" y="1260" width="110" height="80" as="geometry" />
        </mxCell>
        <mxCell id="5WK8_x_44DjKEQDblCgN-7" value="Player" style="shape=umlActor;verticalLabelPosition=bottom;verticalAlign=top;html=1;outlineConnect=0;" vertex="1" parent="1">
          <mxGeometry x="190" y="1380" width="30" height="60" as="geometry" />
        </mxCell>
        <mxCell id="5WK8_x_44DjKEQDblCgN-16" value="" style="rounded=0;whiteSpace=wrap;html=1;fillColor=#4bc1fb;fontColor=#ffffff;strokeColor=#006EAF;" vertex="1" parent="1">
          <mxGeometry x="610" y="1170" width="420" height="310" as="geometry" />
        </mxCell>
        <mxCell id="5WK8_x_44DjKEQDblCgN-18" value="" style="rounded=0;whiteSpace=wrap;html=1;fillColor=#0050ef;fontColor=#ffffff;strokeColor=#001DBC;opacity=50;" vertex="1" parent="1">
          <mxGeometry x="610" y="1180" width="420" height="300" as="geometry" />
        </mxCell>
        <mxCell id="5WK8_x_44DjKEQDblCgN-19" value="Viewport (800, 640)" style="text;html=1;align=center;verticalAlign=middle;whiteSpace=wrap;rounded=0;fillColor=#0050ef;fontColor=#ffffff;fontStyle=1;fontSize=14;strokeColor=#001DBC;" vertex="1" parent="1">
          <mxGeometry x="1030" y="1170" width="170" height="30" as="geometry" />
        </mxCell>
        <mxCell id="5WK8_x_44DjKEQDblCgN-20" value="Camera (400, 320)&lt;div&gt;Position (0, 320)&lt;/div&gt;" style="text;html=1;align=center;verticalAlign=middle;whiteSpace=wrap;rounded=0;fillColor=#6a00ff;fontColor=#ffffff;fontStyle=1;fontSize=14;strokeColor=#3700CC;" vertex="1" parent="1">
          <mxGeometry x="1030" y="1200" width="170" height="60" as="geometry" />
        </mxCell>
        <mxCell id="5WK8_x_44DjKEQDblCgN-31" value="" style="rounded=0;whiteSpace=wrap;html=1;" vertex="1" parent="1">
          <mxGeometry x="610" y="1420" width="420" height="60" as="geometry" />
        </mxCell>
        <mxCell id="5WK8_x_44DjKEQDblCgN-24" value="" style="rounded=0;whiteSpace=wrap;html=1;fillColor=#76608a;strokeColor=#432D57;fontColor=#ffffff;opacity=50;" vertex="1" parent="1">
          <mxGeometry x="610" y="1190" width="420" height="290" as="geometry" />
        </mxCell>
        <mxCell id="5WK8_x_44DjKEQDblCgN-25" value="" style="ellipse;shape=cloud;whiteSpace=wrap;html=1;opacity=50;" vertex="1" parent="1">
          <mxGeometry x="620" y="1120" width="180" height="140" as="geometry" />
        </mxCell>
        <mxCell id="5WK8_x_44DjKEQDblCgN-26" value="Player" style="shape=umlActor;verticalLabelPosition=bottom;verticalAlign=top;html=1;outlineConnect=0;" vertex="1" parent="1">
          <mxGeometry x="650" y="1310" width="60" height="111" as="geometry" />
        </mxCell>
        <mxCell id="5WK8_x_44DjKEQDblCgN-28" value="" style="rounded=0;whiteSpace=wrap;html=1;fillColor=#4bc1fb;fontColor=#ffffff;strokeColor=#006EAF;" vertex="1" parent="1">
          <mxGeometry x="610" y="1170" width="420" height="10" as="geometry" />
        </mxCell>
        <mxCell id="5WK8_x_44DjKEQDblCgN-29" value="" style="rounded=0;whiteSpace=wrap;html=1;fillColor=#0582FF;fontColor=#ffffff;strokeColor=#001DBC;" vertex="1" parent="1">
          <mxGeometry x="610" y="1180" width="420" height="10" as="geometry" />
        </mxCell>
        <mxCell id="5WK8_x_44DjKEQDblCgN-17" value="&lt;font style=&quot;font-size: 14px;&quot; color=&quot;#000000&quot;&gt;Screen / Graphics Device&lt;/font&gt;" style="text;html=1;align=center;verticalAlign=middle;whiteSpace=wrap;rounded=0;fillColor=#1ba1e2;fontColor=#ffffff;fontStyle=1;fontSize=14;strokeColor=#006EAF;" vertex="1" parent="1">
          <mxGeometry x="610" y="1130" width="190" height="40" as="geometry" />
        </mxCell>
        <mxCell id="5WK8_x_44DjKEQDblCgN-9" value="Off screen&lt;div&gt;Enemy&lt;/div&gt;" style="shape=umlActor;verticalLabelPosition=bottom;verticalAlign=top;html=1;outlineConnect=0;" vertex="1" parent="1">
          <mxGeometry x="490" y="1380" width="30" height="54" as="geometry" />
        </mxCell>
      </root>
    </mxGraphModel>
  </diagram>
</mxfile>
